<?xml version="1.0" encoding="utf-8"?>
<!-- Generator: Adobe Illustrator 21.1.0, SVG Export Plug-In . SVG Version: 6.00 Build 0)  -->
<svg version="1.1" id="图层_1" xmlns="http://www.w3.org/2000/svg" xmlns:xlink="http://www.w3.org/1999/xlink" x="0px" y="0px"
	 viewBox="0 0 64 64" style="enable-background:new 0 0 64 64;" xml:space="preserve">
<style type="text/css">
	.st0{fill:none;stroke:#222829;stroke-miterlimit:10;}
	.st1{fill:none;stroke:#222829;stroke-linejoin:round;stroke-miterlimit:10;}
</style>
<g>
	<polyline class="st0" points="27,63 27,1 31,1 31,63 	"/>
	<g>
		<line class="st0" x1="11" y1="40" x2="11" y2="63"/>
		<line class="st0" x1="11" y1="20" x2="11" y2="22"/>
		<line class="st0" x1="5" y1="37" x2="17" y2="37"/>
		<line class="st0" x1="5" y1="39" x2="5" y2="63"/>
		<path class="st0" d="M17,24v15h4V21c0-2.2-1.8-4-4-4H5c-2.2,0-4,1.8-4,4v18h4V24"/>
		<line class="st0" x1="17" y1="63" x2="17" y2="39"/>
		<circle class="st0" cx="11" cy="9" r="4"/>
	</g>
	<line class="st0" x1="0" y1="63" x2="64" y2="63"/>
	<polyline class="st1" points="44,26 44,6 31,6 31,26 44,26 39,31 63,31 56,20 63,9 47,9 	"/>
	<line class="st1" x1="39" y1="31" x2="39" y2="26"/>
	<line class="st1" x1="53" y1="20" x2="51" y2="20"/>
	<line class="st1" x1="49" y1="20" x2="47" y2="20"/>
	<polyline class="st0" points="37,63 37,49 59,49 59,63 	"/>
	<polyline class="st0" points="43,49 43,45 53,45 53,49 	"/>
	<line class="st1" x1="37" y1="55" x2="59" y2="55"/>
	<line class="st1" x1="48" y1="55" x2="48" y2="58"/>
</g>
</svg>
